<svg id="Layer_1" data-name="Layer 1" xmlns="http://www.w3.org/2000/svg" viewBox="0 0 77 29.93"><defs><style>.cls-1{fill:#373229;}.cls-2{fill:#d4145a;}.cls-3{fill:#af093c;}.cls-4{fill:#666;}</style></defs><title>icons</title><path class="cls-1" d="M8.89,0h7.79a.55.55,0,0,1,.47.6V.8a.55.55,0,0,1-.47.6H8.89A.55.55,0,0,1,8.42.8V.6A.55.55,0,0,1,8.89,0Z"/><path class="cls-1" d="M9,28.53h7.8a.55.55,0,0,1,.46.6v.2a.55.55,0,0,1-.46.6H9a.55.55,0,0,1-.46-.6v-.2A.55.55,0,0,1,9,28.53Z"/><path class="cls-1" d="M57.67,28.33h7.8a.55.55,0,0,1,.46.6v.2a.55.55,0,0,1-.46.6h-7.8a.55.55,0,0,1-.46-.6v-.2A.55.55,0,0,1,57.67,28.33Z"/><path class="cls-1" d="M57.67,0h7.8a.55.55,0,0,1,.46.6V.8a.55.55,0,0,1-.46.6h-7.8a.55.55,0,0,1-.46-.6V.6A.55.55,0,0,1,57.67,0Z"/><path class="cls-1" d="M.59,23.54C.46,23.54,0,23,0,22.15V8.3s0-.88.59-1.12"/><path class="cls-1" d="M1.56,1.3v.2c-.48,0-1,2.41-1,5.88H.39C.39,4.43.8,1.3,1.56,1.3Z"/><path class="cls-1" d="M.47,3.19C.47,1.92,1,.9,1.56.9V3.19Z"/><path class="cls-1" d="M.55,23.34H.7c0,3.47.54,5.89,1,5.89v.2C1,29.43.55,26.29.55,23.34Z"/><path class="cls-1" d="M.63,27.53c0,1.27.48,2.3,1.09,2.3v-2.3Z"/><path class="cls-2" d="M6.26.93H70.74C74.18.93,77,4.55,77,9V21.87c0,4.43-2.82,8.06-6.26,8.06H6.26C2.82,29.93,0,26.3,0,21.87V9C0,4.55,2.82.93,6.26.93Z"/><rect class="cls-3" x="71.62" y="2.39" width="0.16" height="25.94"/><rect class="cls-3" x="67.96" y="1.6" width="0.16" height="25.94"/><rect class="cls-3" x="64.53" y="1.6" width="0.16" height="25.94"/><rect class="cls-3" x="59.47" y="2.39" width="0.16" height="25.94"/><rect class="cls-3" x="55.8" y="1.6" width="0.16" height="25.94"/><rect class="cls-3" x="52.37" y="1.6" width="0.16" height="25.94"/><rect class="cls-3" x="47.46" y="2.39" width="0.16" height="25.94"/><rect class="cls-3" x="43.8" y="1.6" width="0.16" height="25.94"/><rect class="cls-3" x="40.37" y="1.6" width="0.16" height="25.94"/><rect class="cls-3" x="35.31" y="2.39" width="0.16" height="25.94"/><rect class="cls-3" x="31.64" y="1.6" width="0.16" height="25.94"/><rect class="cls-3" x="28.21" y="1.6" width="0.16" height="25.94"/><rect class="cls-3" x="23.3" y="2.39" width="0.16" height="25.94"/><rect class="cls-3" x="19.64" y="1.6" width="0.16" height="25.94"/><rect class="cls-3" x="16.21" y="1.6" width="0.16" height="25.94"/><rect class="cls-3" x="12.78" y="0.6" width="0.16" height="28.73"/><path class="cls-2" d="M57.77,8.93h6.46a.91.91,0,0,1,.77,1v11a.91.91,0,0,1-.77,1H57.77a.91.91,0,0,1-.77-1v-11A.91.91,0,0,1,57.77,8.93Z"/><path class="cls-3" d="M57.59,8.58h6.55A1,1,0,0,1,65,9.68v11a1,1,0,0,1-.86,1.1H57.59a1,1,0,0,1-.85-1.1v-11A1,1,0,0,1,57.59,8.58Zm6.55,13a.82.82,0,0,0,.7-.9v-11a.81.81,0,0,0-.7-.9H57.59a.82.82,0,0,0-.7.9v11a.83.83,0,0,0,.7.9Z"/><path class="cls-2" d="M32.77,8.93h6.46a.91.91,0,0,1,.77,1v11a.91.91,0,0,1-.77,1H32.77a.91.91,0,0,1-.77-1v-11A.91.91,0,0,1,32.77,8.93Z"/><path class="cls-3" d="M32.34,8.58h6.55a1,1,0,0,1,.86,1.1v11a1,1,0,0,1-.86,1.1H32.34a1,1,0,0,1-.85-1.1v-11A1,1,0,0,1,32.34,8.58Zm6.55,13a.82.82,0,0,0,.7-.9v-11a.81.81,0,0,0-.7-.9H32.34a.82.82,0,0,0-.7.9v11a.83.83,0,0,0,.7.9Z"/><path class="cls-2" d="M1.75,8.93h10.5c.41,0,.75.45.75,1v11c0,.55-.34,1-.75,1H1.75c-.41,0-.75-.45-.75-1v-11C1,9.38,1.34,8.93,1.75,8.93Z"/><path class="cls-3" d="M1.17,8.58H12.08a1,1,0,0,1,.86,1.1v11a1,1,0,0,1-.86,1.1H1.17a1,1,0,0,1-.86-1.1v-11A1,1,0,0,1,1.17,8.58Zm10.91,13a.82.82,0,0,0,.7-.9v-11a.81.81,0,0,0-.7-.9H1.17a.82.82,0,0,0-.7.9v11a.83.83,0,0,0,.7.9Z"/><path class="cls-1" d="M62.66,1.45h9.06c0-.05.6-.05.93,2V3.39c0,.77.14,1.4-.46,1.4H62c-.6,0-.46-.63-.46-1.4V2.85A1.28,1.28,0,0,1,62.66,1.45Z"/><path class="cls-4" d="M61.73,2.19a1,1,0,0,1,.89-.75h9s.57,0,.72.75"/><path class="cls-1" d="M50.5,1.45h9.06c0-.05.61-.05.94,2V3.39c0,.77.13,1.4-.47,1.4H49.88c-.6,0-.47-.63-.47-1.4V2.85A1.28,1.28,0,0,1,50.5,1.45Z"/><path class="cls-4" d="M49.57,2.19a1,1,0,0,1,.9-.75h9s.56,0,.72.75"/><path class="cls-1" d="M38.65,1.45h9.06c0-.05.61-.05.94,2V3.39c0,.77.13,1.4-.47,1.4H38c-.6,0-.47-.63-.47-1.4V2.85A1.28,1.28,0,0,1,38.65,1.45Z"/><path class="cls-4" d="M37.72,2.19a1,1,0,0,1,.9-.75h9s.57,0,.72.75"/><path class="cls-1" d="M26.5,1.45h9.06c0-.05.6-.05.93,2V3.39c0,.77.13,1.4-.47,1.4H25.87c-.6,0-.46-.63-.46-1.4V2.85A1.28,1.28,0,0,1,26.5,1.45Z"/><path class="cls-4" d="M25.56,2.19a1,1,0,0,1,.9-.75h9s.57,0,.72.75"/><path class="cls-1" d="M14.34,1.45H23.4c0-.05.61-.05.93,2V3.39c0,.77.14,1.4-.46,1.4H13.72c-.6,0-.47-.63-.47-1.4V2.85A1.28,1.28,0,0,1,14.34,1.45Z"/><path class="cls-4" d="M13.41,2.19a1,1,0,0,1,.9-.75h9s.57,0,.73.75"/><path class="cls-1" d="M23.4,28.32H14.34c0,.05-.61.05-.94-2v.05c0-.76-.13-1.39.47-1.39H24c.6,0,.47.63.47,1.39v.55A1.28,1.28,0,0,1,23.4,28.32Z"/><path class="cls-4" d="M24.33,27.57a1,1,0,0,1-.9.75h-9s-.56.05-.72-.75"/><path class="cls-1" d="M35.56,28.32H26.5c0,.05-.61.05-.94-2v.05c0-.76-.13-1.39.47-1.39H36.18c.6,0,.47.63.47,1.39v.55A1.28,1.28,0,0,1,35.56,28.32Z"/><path class="cls-4" d="M36.49,27.57a1,1,0,0,1-.9.75h-9s-.56.05-.72-.75"/><path class="cls-1" d="M47.4,28.32H38.34c0,.05-.6.05-.93-2v.05c0-.76-.14-1.39.46-1.39H48c.6,0,.46.63.46,1.39v.55A1.28,1.28,0,0,1,47.4,28.32Z"/><path class="cls-4" d="M48.33,27.57a1,1,0,0,1-.9.75h-9s-.57.05-.72-.75"/><path class="cls-1" d="M59.56,28.32H50.5c0,.05-.61.05-.94-2v.05c0-.76-.13-1.39.47-1.39H60.18c.6,0,.47.63.47,1.39v.55A1.28,1.28,0,0,1,59.56,28.32Z"/><path class="cls-4" d="M60.49,27.57a1,1,0,0,1-.9.75h-9s-.56.05-.72-.75"/><path class="cls-1" d="M71.72,28.32H62.66c0,.05-.61.05-.94-2v.05c0-.76-.13-1.39.47-1.39H72.34c.6,0,.47.63.47,1.39v.55A1.28,1.28,0,0,1,71.72,28.32Z"/><path class="cls-4" d="M72.65,27.57a1,1,0,0,1-.9.75h-9s-.56.05-.72-.75"/></svg>