<svg id="Layer_1" data-name="Layer 1" xmlns="http://www.w3.org/2000/svg" viewBox="0 0 75 29.15"><defs><style>.cls-1{fill:#373229;}.cls-2{fill:#999;}.cls-3{fill:gray;}.cls-4{fill:#666;}</style></defs><title>icons</title><path class="cls-1" d="M8.66,0h7.59a.53.53,0,0,1,.45.58v.2a.53.53,0,0,1-.45.58H8.66A.53.53,0,0,1,8.2.78V.58A.53.53,0,0,1,8.66,0Z"/><path class="cls-1" d="M8.81,27.79H16.4a.53.53,0,0,1,.45.58v.2a.53.53,0,0,1-.45.58H8.81a.53.53,0,0,1-.46-.58v-.2A.53.53,0,0,1,8.81,27.79Z"/><path class="cls-1" d="M56.17,27.59h7.6a.54.54,0,0,1,.45.59v.19a.53.53,0,0,1-.45.58h-7.6a.53.53,0,0,1-.45-.58v-.19A.54.54,0,0,1,56.17,27.59Z"/><path class="cls-1" d="M56.17,0h7.6a.53.53,0,0,1,.45.58v.2a.53.53,0,0,1-.45.58h-7.6a.53.53,0,0,1-.45-.58V.58A.53.53,0,0,1,56.17,0Z"/><path class="cls-1" d="M.57,22.93c-.12,0-.57-.49-.57-1.35V8.08S0,7.23.57,7"/><path class="cls-1" d="M1.52,1.26v.2c-.47,0-1,2.35-1,5.73H.38C.38,4.32.78,1.26,1.52,1.26Z"/><path class="cls-1" d="M.46,3.11C.46,1.87.93.87,1.52.87V3.11Z"/><path class="cls-1" d="M.53,22.74H.69c0,3.37.52,5.73,1,5.73v.19C.93,28.66.53,25.61.53,22.74Z"/><path class="cls-1" d="M.61,26.82c0,1.23.48,2.23,1.06,2.23V26.82Z"/><path class="cls-2" d="M6.38.58H68.93C72.27.58,75,4.08,75,8.36V20.79c0,4.28-2.73,7.78-6.07,7.78H6.38C3,28.57.31,25.07.31,20.79V8.36C.31,4.08,3,.58,6.38.58Z"/><rect class="cls-3" x="69.76" y="2.33" width="0.15" height="25.26"/><rect class="cls-3" x="66.19" y="1.55" width="0.15" height="25.26"/><rect class="cls-3" x="62.85" y="1.55" width="0.15" height="25.26"/><rect class="cls-3" x="57.92" y="2.33" width="0.15" height="25.26"/><rect class="cls-3" x="54.35" y="1.55" width="0.15" height="25.26"/><rect class="cls-3" x="51.01" y="1.55" width="0.15" height="25.26"/><rect class="cls-3" x="46.23" y="2.33" width="0.15" height="25.26"/><rect class="cls-3" x="42.66" y="1.55" width="0.15" height="25.26"/><rect class="cls-3" x="39.32" y="1.55" width="0.15" height="25.26"/><rect class="cls-3" x="34.39" y="2.33" width="0.15" height="25.26"/><rect class="cls-3" x="30.82" y="1.55" width="0.15" height="25.26"/><rect class="cls-3" x="27.48" y="1.55" width="0.15" height="25.26"/><rect class="cls-3" x="22.7" y="2.33" width="0.15" height="25.26"/><rect class="cls-3" x="19.13" y="1.55" width="0.15" height="25.26"/><rect class="cls-3" x="15.79" y="1.55" width="0.15" height="25.26"/><rect class="cls-3" x="12.45" y="0.58" width="0.15" height="27.98"/><path class="cls-2" d="M56.1,8.45h6.38a.89.89,0,0,1,.75,1V20.11a.88.88,0,0,1-.75,1H56.1a.88.88,0,0,1-.76-1V9.42A.89.89,0,0,1,56.1,8.45Z"/><path class="cls-3" d="M56.1,8.36h6.38a1,1,0,0,1,.83,1.06V20.11a1,1,0,0,1-.83,1.07H56.1a1,1,0,0,1-.84-1.07V9.42A1,1,0,0,1,56.1,8.36ZM62.48,21a.81.81,0,0,0,.68-.88V9.42a.8.8,0,0,0-.68-.87H56.1a.79.79,0,0,0-.68.87V20.11a.8.8,0,0,0,.68.88Z"/><path class="cls-2" d="M31.5,8.45h6.38a.89.89,0,0,1,.76,1V20.11a.88.88,0,0,1-.76,1H31.5a.88.88,0,0,1-.75-1V9.42A.89.89,0,0,1,31.5,8.45Z"/><path class="cls-3" d="M31.5,8.36h6.38a1,1,0,0,1,.84,1.06V20.11a1,1,0,0,1-.84,1.07H31.5a1,1,0,0,1-.83-1.07V9.42A1,1,0,0,1,31.5,8.36ZM37.88,21a.8.8,0,0,0,.68-.88V9.42a.79.79,0,0,0-.68-.87H31.5a.8.8,0,0,0-.68.87V20.11a.81.81,0,0,0,.68.88Z"/><path class="cls-2" d="M1.14,8.45H11.77a.89.89,0,0,1,.76,1V20.11a.88.88,0,0,1-.76,1H1.14a.88.88,0,0,1-.76-1V9.42A.89.89,0,0,1,1.14,8.45Z"/><path class="cls-3" d="M1.14,8.36H11.77a1,1,0,0,1,.83,1.06V20.11a1,1,0,0,1-.83,1.07H1.14a1,1,0,0,1-.83-1.07V9.42A1,1,0,0,1,1.14,8.36ZM11.77,21a.8.8,0,0,0,.68-.88V9.42a.79.79,0,0,0-.68-.87H1.14a.79.79,0,0,0-.68.87V20.11a.8.8,0,0,0,.68.88Z"/><path class="cls-1" d="M61,1.41h8.82s.6,0,.92,2V3.3c0,.75.12,1.36-.46,1.36H60.42c-.58,0-.45-.61-.45-1.36V2.77A1.24,1.24,0,0,1,61,1.41Z"/><path class="cls-4" d="M60.12,2.14A1,1,0,0,1,61,1.41h8.74s.55,0,.71.73"/><path class="cls-1" d="M49.19,1.41H58s.59,0,.91,2V3.3c0,.75.13,1.36-.45,1.36H48.58c-.58,0-.45-.61-.45-1.36V2.77A1.24,1.24,0,0,1,49.19,1.41Z"/><path class="cls-4" d="M48.28,2.14a1,1,0,0,1,.88-.73H57.9s.55,0,.7.73"/><path class="cls-1" d="M37.65,1.41h8.83s.59,0,.91,2V3.3c0,.75.12,1.36-.46,1.36H37c-.58,0-.45-.61-.45-1.36V2.77A1.24,1.24,0,0,1,37.65,1.41Z"/><path class="cls-4" d="M36.74,2.14a1,1,0,0,1,.88-.73h8.74s.55,0,.71.73"/><path class="cls-1" d="M25.81,1.41h8.82s.59,0,.91,2V3.3c0,.75.13,1.36-.45,1.36H25.2c-.58,0-.45-.61-.45-1.36V2.77A1.24,1.24,0,0,1,25.81,1.41Z"/><path class="cls-4" d="M24.9,2.14a1,1,0,0,1,.88-.73h8.74s.55,0,.7.73"/><path class="cls-1" d="M14,1.41h8.82s.59,0,.91,2V3.3c0,.75.13,1.36-.45,1.36H13.36c-.59,0-.46-.61-.46-1.36V2.77A1.24,1.24,0,0,1,14,1.41Z"/><path class="cls-4" d="M13.06,2.14a1,1,0,0,1,.88-.73h8.74s.55,0,.7.73"/><path class="cls-1" d="M22.79,27.58H14c0,.05-.59.05-.91-1.94v.05c0-.75-.13-1.36.45-1.36H23.4c.58,0,.45.61.45,1.36v.53A1.24,1.24,0,0,1,22.79,27.58Z"/><path class="cls-4" d="M23.7,26.86a1,1,0,0,1-.88.73H14.08s-.55,0-.7-.73"/><path class="cls-1" d="M34.63,27.58H25.81c0,.05-.59.05-.91-1.94v.05c0-.75-.13-1.36.45-1.36h9.89c.59,0,.46.61.46,1.36v.53A1.24,1.24,0,0,1,34.63,27.58Z"/><path class="cls-4" d="M35.54,26.86a1,1,0,0,1-.88.73H25.92s-.55,0-.7-.73"/><path class="cls-1" d="M46.17,27.58H37.35c0,.05-.59.05-.91-1.94v.05c0-.75-.13-1.36.45-1.36h9.89c.58,0,.45.61.45,1.36v.53A1.24,1.24,0,0,1,46.17,27.58Z"/><path class="cls-4" d="M47.08,26.86a1,1,0,0,1-.88.73H37.46s-.55,0-.7-.73"/><path class="cls-1" d="M58,27.58H49.19c0,.05-.59.05-.91-1.94v.05c0-.75-.13-1.36.45-1.36h9.89c.58,0,.46.61.46,1.36v.53A1.24,1.24,0,0,1,58,27.58Z"/><path class="cls-4" d="M58.92,26.86a1,1,0,0,1-.88.73H49.3s-.55,0-.7-.73"/><path class="cls-1" d="M69.85,27.58H61c0,.05-.59.05-.91-1.94v.05c0-.75-.13-1.36.45-1.36h9.89c.59,0,.46.61.46,1.36v.53A1.24,1.24,0,0,1,69.85,27.58Z"/><path class="cls-4" d="M70.76,26.86a1,1,0,0,1-.87.73H61.14s-.55,0-.7-.73"/></svg>