<?xml version="1.0" encoding="utf-8"?>
<!-- Generator: Adobe Illustrator 22.0.1, SVG Export Plug-In . SVG Version: 6.00 Build 0)  -->
<svg version="1.1" id="Layer_1" xmlns="http://www.w3.org/2000/svg" xmlns:xlink="http://www.w3.org/1999/xlink" x="0px" y="0px"
	 viewBox="0 0 790.4 285.8" style="enable-background:new 0 0 790.4 285.8;" xml:space="preserve">
<style type="text/css">
	.st0{fill:#FFFFFF;}
	.st1{opacity:0.5;}
</style>
<g>
	<g>
		<path class="st0" d="M95.8,127.9v23H70.5v62.1c0,5.8,1,9.7,2.9,11.6c1.9,1.9,5.8,2.9,11.6,2.9c1.9,0,3.8-0.1,5.6-0.2
			c1.8-0.2,3.5-0.4,5.1-0.7v26.7c-2.9,0.5-6.1,0.8-9.7,1c-3.6,0.2-7,0.2-10.4,0.2c-5.3,0-10.4-0.4-15.2-1.1c-4.8-0.7-9-2.1-12.6-4.2
			c-3.6-2.1-6.5-5.1-8.6-9c-2.1-3.9-3.2-9-3.2-15.3v-74H15.2v-23h20.9V90.3h34.4v37.6H95.8z"/>
		<path class="st0" d="M179,192.7v-17.5h-0.7c-4.4,7.3-10,12.5-17,15.8c-7,3.2-14.1,4.9-21.3,4.9c-9.2,0-16.8-1.2-22.7-3.6
			c-5.9-2.4-10.6-5.9-13.9-10.3c-3.4-4.4-5.8-9.9-7.2-16.3c-1.4-6.4-2.1-13.5-2.1-21.2V67.3h34.4v70.8c0,10.4,1.6,18.1,4.9,23.2
			c3.2,5.1,9,7.6,17.2,7.6c9.4,0,16.2-2.8,20.4-8.4c4.2-5.6,6.3-14.8,6.3-27.5V67.3h34.5v125.4H179z"/>
		<path class="st0" d="M383.5,19.5c7.8,0,14.8,1.3,21,3.8c6.2,2.5,11.6,5.9,16,10.3c4.4,4.4,7.8,9.4,10.2,15.2
			c2.3,5.7,3.5,11.9,3.5,18.6c0,10.2-2.1,19-6.4,26.4c-4.3,7.4-11.3,13.1-21,17v0.5c4.7,1.3,8.6,3.3,11.6,5.9
			c3.1,2.7,5.6,5.8,7.5,9.5c1.9,3.6,3.4,7.6,4.2,12c0.9,4.4,1.5,8.7,1.8,13.1c0.2,2.8,0.3,6,0.5,9.7c0.2,3.7,0.4,7.5,0.8,11.4
			c0.4,3.9,1.1,7.6,1.9,11c0.9,3.5,2.2,6.4,4,8.9h-38.1c-2.1-5.5-3.4-12-3.9-19.7c-0.5-7.6-1.2-14.9-2.2-21.8
			c-1.3-9.1-4-15.7-8.2-19.9c-4.2-4.2-11.1-6.3-20.6-6.3h-38.1v67.7h-38.1V19.5H383.5z M369.9,97.8c8.7,0,15.3-1.9,19.7-5.8
			c4.4-3.9,6.6-10.2,6.6-18.9c0-8.4-2.2-14.5-6.6-18.3c-4.4-3.8-10.9-5.7-19.7-5.7h-41.7v48.8H369.9z"/>
		<path class="st0" d="M534.4,247.3v-17.5h-0.7c-4.4,7.3-10,12.5-17,15.8c-7,3.2-14.1,4.9-21.3,4.9c-9.2,0-16.8-1.2-22.7-3.6
			c-5.9-2.4-10.6-5.9-13.9-10.3c-3.4-4.4-5.8-9.9-7.2-16.3c-1.4-6.4-2.1-13.5-2.1-21.2v-77.2h34.4v70.8c0,10.4,1.6,18.1,4.9,23.2
			c3.2,5.1,9,7.6,17.2,7.6c9.4,0,16.2-2.8,20.4-8.4c4.2-5.6,6.3-14.8,6.3-27.5v-65.7h34.5v125.4H534.4z"/>
		<path class="st0" d="M650.1,67.3v23h-25.2v62.1c0,5.8,1,9.7,2.9,11.6c1.9,1.9,5.8,2.9,11.6,2.9c1.9,0,3.8-0.1,5.6-0.2
			c1.8-0.2,3.5-0.4,5.1-0.7v26.7c-2.9,0.5-6.1,0.8-9.7,1c-3.6,0.2-7,0.2-10.4,0.2c-5.3,0-10.4-0.4-15.2-1.1c-4.8-0.7-9-2.1-12.6-4.2
			c-3.6-2.1-6.5-5.1-8.6-9c-2.1-3.9-3.2-9-3.2-15.3v-74h-20.9v-23h20.9V29.7h34.4v37.6H650.1z"/>
		<path class="st0" d="M616.6,190.7c0.5-8.1,2.5-14.8,6.1-20.1c3.6-5.3,8.1-9.6,13.6-12.9c5.5-3.2,11.7-5.5,18.6-6.9
			c6.9-1.4,13.8-2.1,20.7-2.1c6.3,0,12.7,0.5,19.2,1.3c6.5,0.9,12.4,2.6,17.7,5.2c5.3,2.6,9.7,6.2,13.1,10.8
			c3.4,4.6,5.1,10.7,5.1,18.3v65.3c0,5.7,0.3,11.1,1,16.3c0.6,5.2,1.8,9.1,3.4,11.6h-34.9c-0.6-1.9-1.2-3.9-1.6-5.9
			c-0.4-2-0.7-4.1-0.8-6.2c-5.5,5.7-12,9.6-19.4,11.9c-7.4,2.3-15,3.4-22.8,3.4c-6,0-11.6-0.7-16.7-2.2c-5.2-1.5-9.7-3.7-13.6-6.8
			c-3.9-3.1-6.9-7-9.1-11.6c-2.2-4.7-3.3-10.3-3.3-16.7c0-7.1,1.3-13,3.8-17.6c2.5-4.6,5.7-8.3,9.7-11c4-2.7,8.5-4.8,13.6-6.2
			c5.1-1.4,10.2-2.5,15.4-3.3c5.2-0.8,10.3-1.5,15.3-1.9c5-0.5,9.5-1.2,13.3-2.2c3.9-1,7-2.4,9.2-4.2c2.3-1.9,3.3-4.6,3.2-8.1
			c0-3.7-0.6-6.7-1.8-8.9c-1.2-2.2-2.8-3.9-4.9-5.1c-2-1.2-4.4-2-7-2.4c-2.7-0.4-5.5-0.6-8.6-0.6c-6.8,0-12.1,1.5-16,4.4
			c-3.9,2.9-6.2,7.8-6.8,14.6H616.6z M696.2,216.2c-1.5,1.3-3.3,2.3-5.5,3c-2.2,0.7-4.5,1.3-7,1.8c-2.5,0.5-5.1,0.9-7.9,1.2
			c-2.8,0.3-5.5,0.7-8.3,1.2c-2.6,0.5-5.1,1.1-7.6,1.9c-2.5,0.8-4.7,1.9-6.6,3.3c-1.9,1.4-3.4,3.1-4.5,5.2c-1.1,2.1-1.7,4.8-1.7,8
			c0,3.1,0.6,5.7,1.7,7.8c1.1,2.1,2.7,3.8,4.6,5c1.9,1.2,4.2,2.1,6.8,2.5c2.6,0.5,5.3,0.7,8,0.7c6.8,0,12-1.1,15.8-3.4
			c3.7-2.3,6.5-5,8.2-8.1c1.8-3.2,2.9-6.3,3.3-9.6c0.4-3.2,0.6-5.8,0.6-7.8V216.2z"/>
	</g>
	<g class="st1">
		<g>
			<path class="st0" d="M130.6,245.8c36.3-16.3,86.7-15.8,125.5-17.1c45.4-1.5,115.5-5,149.2,31.8c7.9,8.7,20.8-4.2,12.9-12.9
				c-36.1-39.4-106.4-38.4-155.3-37.3c-44.3,1-100.2,1.2-141.5,19.8C110.8,234.9,120,250.5,130.6,245.8L130.6,245.8z"/>
		</g>
		<g>
			<path class="st0" d="M371.7,265.9c18.7,0.4,37.5,0.8,56.2,1.1c7,0.1,11.2-7.8,7.9-13.7c-7.9-13.8-14-28.1-18.5-43.3
				c-3.3-11.2-20.9-6.4-17.5,4.8c4.9,16.7,11.7,32.5,20.3,47.6c2.6-4.6,5.2-9.1,7.9-13.7c-18.7-0.4-37.5-0.8-56.2-1.1
				C359.9,247.5,359.9,265.7,371.7,265.9L371.7,265.9z"/>
		</g>
	</g>
	<g class="st1">
		<g>
			<path class="st0" d="M482.1,99.5c0.4-42.1,45.5-53.6,79.7-51.2c11.7,0.8,11.6-17.4,0-18.2C517,27,464.4,47.4,463.9,99.5
				C463.8,111.2,482,111.2,482.1,99.5L482.1,99.5z"/>
		</g>
		<g>
			<path class="st0" d="M521,21.7c5.9,3.2,11.7,6.5,17.4,10c2.9,1.7,5.6,3.7,8.5,5.4c5.2,3.1,6.1,1.8,3.8,6.8
				c-5.8,12.5-20.7,24.9-30.1,34.9c-8,8.5,4.8,21.4,12.9,12.9c8.4-8.9,16.6-18.1,24.3-27.6c5.3-6.5,14.2-14.5,14.5-23.5
				c0.2-7.3-4.4-11-9.9-15c-10.2-7.3-21.2-13.6-32.2-19.5C519.9,0.4,510.7,16.1,521,21.7L521,21.7z"/>
		</g>
	</g>
	<g class="st1">
		<g>
			<path class="st0" d="M676.6,45.5c41.8-0.4,54.6,44.1,48.6,78.3c-2,11.5,15.5,16.4,17.5,4.8c8-45.7-11.7-101.8-66.2-101.4
				C664.9,27.4,664.9,45.6,676.6,45.5L676.6,45.5z"/>
		</g>
		<g>
			<path class="st0" d="M695.6,107.1c10.3,12.4,21.5,23.8,33.7,34.3c4.5,3.8,11.1,3.4,14.3-1.8c7.9-12.8,17.4-23.8,28.8-33.6
				c8.9-7.6-4-20.4-12.9-12.9c-12.6,10.7-23,23.2-31.7,37.3c4.8-0.6,9.5-1.2,14.3-1.8c-12.2-10.5-23.4-21.9-33.7-34.3
				C701,85.3,688.2,98.2,695.6,107.1L695.6,107.1z"/>
		</g>
	</g>
</g>
</svg>
