<svg id="Layer_1" data-name="Layer 1" xmlns="http://www.w3.org/2000/svg" viewBox="0 0 27.52 43.99"><defs><style>.cls-1{fill:#999;}</style></defs><title>icons</title><g id="Point"><path class="cls-1" d="M0,13.46v-.3a3.55,3.55,0,0,0,.09-.47c0-.4,0-.8.1-1.19A13.09,13.09,0,0,1,4.91,3.13,13.37,13.37,0,0,1,15.34.1a13.17,13.17,0,0,1,8,3.66,12.9,12.9,0,0,1,4,8c0,.44.11.89.17,1.33v.3a5,5,0,0,0-.08.66,10.59,10.59,0,0,1-.61,3.31,32.26,32.26,0,0,1-3,5.95c-1.51,2.42-3.09,4.8-4.57,7.24a41.78,41.78,0,0,0-4.11,8.71c-.53,1.6-.94,3.23-1.37,4.73-.24-.91-.49-2-.79-3a47.58,47.58,0,0,0-5.61-12c-1.91-3.05-4-6-5.66-9.21A13.27,13.27,0,0,1,.16,15.06C.11,14.53.05,14,0,13.46Zm8.92-.28a4.82,4.82,0,0,0,4.83,4.89,4.87,4.87,0,0,0,0-9.73A4.79,4.79,0,0,0,8.92,13.18Z"/></g></svg>