<svg id="Layer_1" data-name="Layer 1" xmlns="http://www.w3.org/2000/svg" viewBox="0 0 28 44.76"><defs><style>.cls-1{fill:#d4145a;}</style></defs><title>icons</title><g id="Point"><path class="cls-1" d="M0,13.7v-.31a4,4,0,0,0,.09-.48c0-.4,0-.81.1-1.21A13.37,13.37,0,0,1,5,3.18,13.64,13.64,0,0,1,15.61.1a13.47,13.47,0,0,1,8.11,3.72A13.16,13.16,0,0,1,27.83,12c.05.45.11.9.17,1.35v.3a5.25,5.25,0,0,0-.08.68,10.68,10.68,0,0,1-.62,3.36,32.85,32.85,0,0,1-3.07,6.06c-1.53,2.46-3.14,4.88-4.65,7.37A42.67,42.67,0,0,0,15.41,40c-.54,1.62-1,3.29-1.4,4.81-.24-.92-.5-2-.81-3.06A48.29,48.29,0,0,0,7.5,29.45c-1.95-3.11-4-6.12-5.76-9.37A13.18,13.18,0,0,1,.17,15.33C.11,14.78.06,14.24,0,13.7Zm8.92-.14a4.82,4.82,0,0,0,4.83,4.89,4.87,4.87,0,0,0,0-9.73A4.79,4.79,0,0,0,8.92,13.56Z"/></g></svg>